<svg xmlns="http://www.w3.org/2000/svg" width="512" height="471" fill="none" viewBox="0 0 512 471"><g clip-path="url(#a)"><path fill="#ffbe78" d="M168.299 469.479c-22.151-2.815-42.272-12.321-57.962-27.595-15.276-14.904-33.458-42.499-33.043-89.197l41.072.369c-.23 25.518 6.923 46.052 20.629 59.434 11.721 11.398 28.012 17.397 45.825 16.751 16.152-.554 31.104-7.383 42.134-19.196 11.029-11.813 16.798-27.225 16.244-43.33-.785-22.241-13.152-41.945-32.35-51.497-20.444-10.152-41.303-3.276-59.716 2.769a349 349 0 0 1-9.415 2.999c-35.58 10.567-71.068 7.383-97.327-8.675-30.32-18.596-48.04-53.85-44.117-87.813 3.645-31.562 25.104-59.987 54.685-72.354l15.876 37.838c-15.876 6.645-27.828 22.427-29.766 39.223-2.123 18.365 7.845 37.7 24.781 48.082 16.337 10.014 39.734 11.583 64.193 4.338 2.538-.738 5.307-1.661 8.214-2.63 22.013-7.245 55.332-18.181 90.82-.554 32.72 16.243 53.809 49.513 55.102 86.844.923 27.086-8.722 52.927-27.228 72.769-18.505 19.842-43.61 31.286-70.745 32.209a110 110 0 0 1-17.952-.784z"/><path fill="#00028c" d="M166.222 203.918c-12.137-1.523-24.136-5.307-35.396-11.305-23.951-12.736-41.487-34.055-49.425-59.988s-5.26-53.389 7.476-77.338c13.706-25.702 35.904-44.021 62.531-51.497 20.583-5.768 53.533-7.706 93.774 16.012l-20.859 35.393c-21.967-12.967-43.333-17.027-61.793-11.86-15.736 4.43-29.027 15.551-37.426 31.287-7.569 14.258-9.184 30.639-4.477 46.052 4.708 15.458 15.183 28.148 29.443 35.715 19.659 10.475 42.918 9.598 60.778-2.261 19.013-12.597 23.489-34.147 27.458-53.112.692-3.46 1.384-6.69 2.123-9.644 8.676-36.131 29.165-65.248 56.208-79.922 31.243-16.935 70.654-14.628 98.066 5.722 25.52 18.965 39.364 51.728 35.35 83.521l-40.749-5.168c2.168-17.073-5.492-35.3-19.106-45.406-14.814-11.029-36.549-12.09-53.994-2.584-16.844 9.137-29.904 28.61-35.857 53.435-.646 2.584-1.2 5.445-1.846 8.444-4.753 22.703-11.906 56.989-44.948 78.953-20.029 13.29-43.934 18.55-67.377 15.597z"/><path fill="#c8c8ff" d="M329.772 469.156c-15.598-1.938-30.688-7.845-43.425-17.443l24.781-32.716c13.706 10.382 33.366 12.828 48.872 6.045 16.936-7.383 28.658-25.656 29.165-45.545.462-19.15-9.922-40.191-28.473-57.68-1.938-1.846-4.107-3.738-6.415-5.814-17.306-15.412-43.518-38.715-46.056-78.307-2.354-36.454 15.829-71.385 47.441-91.227 22.981-14.397 50.209-19.012 76.652-12.967s48.917 22.057 63.362 44.991c15.506 24.687 20.305 53.066 13.521 79.876-5.214 20.718-19.982 50.251-60.593 73.323l-20.305-35.716c22.198-12.597 36.365-29.071 41.072-47.667 4.015-15.874.969-32.947-8.491-48.036-8.584-13.705-21.967-23.211-37.749-26.81-15.737-3.599-31.981-.877-45.641 7.706-18.829 11.813-29.674 32.44-28.289 53.804 1.477 22.75 17.905 37.377 32.396 50.252 2.63 2.353 5.076 4.522 7.291 6.644 26.997 25.472 42.088 57.773 41.349 88.551-.876 35.531-22.474 68.571-53.809 82.183-14.629 6.368-30.873 8.445-46.61 6.507z"/></g><defs><clipPath id="a"><path fill="#fff" d="M0 0h512v471H0z"/></clipPath></defs></svg>