<svg xmlns="http://www.w3.org/2000/svg" width="109" height="32" fill="none" viewBox="0 0 109 32"><g fill="#fff" clip-path="url(#a)"><path d="M11.68 31.912c-1.507-.192-2.876-.838-3.943-1.876-1.04-1.014-2.276-2.89-2.248-6.065l2.794.026c-.016 1.734.471 3.13 1.403 4.04.798.775 1.906 1.183 3.118 1.14a4.1 4.1 0 0 0 2.866-1.306 4.1 4.1 0 0 0 1.106-2.946c-.054-1.512-.895-2.852-2.201-3.501-1.391-.69-2.81-.223-4.063.188-.226.076-.443.145-.64.204-2.42.719-4.835.502-6.622-.59-2.062-1.264-3.268-3.66-3.001-5.97.248-2.146 1.708-4.078 3.72-4.92l1.08 2.573c-1.08.452-1.893 1.525-2.025 2.667-.144 1.249.534 2.563 1.686 3.27 1.112.68 2.703.787 4.367.294.173-.05.361-.113.56-.179 1.497-.492 3.763-1.236 6.178-.037 2.226 1.104 3.66 3.366 3.748 5.904a6.86 6.86 0 0 1-1.852 4.947 6.86 6.86 0 0 1-4.813 2.19 7.5 7.5 0 0 1-1.221-.053z"/><path d="M11.539 13.857a7 7 0 0 1-2.408-.769A6.86 6.86 0 0 1 5.768 9.01a6.85 6.85 0 0 1 .509-5.258C7.209 2.004 8.719.759 10.53.25c1.4-.392 3.642-.524 6.38 1.088l-1.42 2.407c-1.494-.882-2.948-1.158-4.203-.807-1.071.302-1.975 1.058-2.547 2.127a4.1 4.1 0 0 0-.304 3.131 4.08 4.08 0 0 0 2.003 2.429c1.337.712 2.92.652 4.135-.154 1.293-.857 1.598-2.322 1.868-3.611q.07-.354.144-.656c.59-2.456 1.984-4.436 3.824-5.433 2.125-1.152 4.807-.995 6.671.389 1.737 1.289 2.679 3.516 2.405 5.678l-2.772-.351c.148-1.161-.373-2.4-1.3-3.087-1.007-.75-2.486-.822-3.673-.176-1.146.621-2.034 1.945-2.44 3.633-.043.176-.08.37-.125.574-.323 1.543-.81 3.874-3.058 5.368a6.75 6.75 0 0 1-4.583 1.06z" opacity=".7"/><path d="M22.668 31.89a6.2 6.2 0 0 1-2.954-1.186L21.4 28.48c.933.706 2.27.872 3.325.41 1.152-.501 1.95-1.743 1.984-3.096.031-1.302-.675-2.732-1.937-3.921-.132-.126-.28-.254-.436-.395-1.178-1.048-2.961-2.633-3.134-5.324-.16-2.479 1.077-4.854 3.228-6.203a6.88 6.88 0 0 1 5.215-.881 6.87 6.87 0 0 1 4.31 3.059c1.055 1.678 1.381 3.607.92 5.43-.355 1.409-1.36 3.417-4.122 4.985l-1.382-2.428c1.51-.857 2.474-1.976 2.795-3.24.273-1.08.065-2.24-.578-3.267a4.08 4.08 0 0 0-2.568-1.822 4.1 4.1 0 0 0-3.105.523c-1.281.804-2.019 2.206-1.925 3.659.1 1.546 1.218 2.54 2.204 3.416.18.16.346.307.496.452 1.837 1.732 2.863 3.928 2.813 6.02-.06 2.416-1.529 4.662-3.66 5.588-.996.433-2.1.574-3.171.442z" opacity=".4"/><path d="M50.243 17.236q0 1.233-.53 2.193a3.74 3.74 0 0 1-1.542 1.509q-1.011.548-2.418.549a8.4 8.4 0 0 1-1.83-.191 7 7 0 0 1-1.673-.615v-2.984a8.5 8.5 0 0 0 1.761.788q.913.287 1.686.288c.515 0 .888-.119 1.127-.354q.357-.358.355-.913 0-.403-.173-.703t-.606-.615-1.221-.759a11 11 0 0 1-1.454-.982 3.7 3.7 0 0 1-1.01-1.261q-.369-.74-.368-1.876-.019-1.827 1.127-2.887 1.146-1.057 3.168-1.057.943.001 1.84.251a9 9 0 0 1 1.742.694l-.866 2.56q-1.521-.83-2.675-.829-.674.001-.992.317a1.07 1.07 0 0 0-.318.797q0 .444.183.74.182.298.634.615.452.32 1.28.76 1.349.73 2.06 1.634.712.905.713 2.328m.637-6.519h3.08l1.388 5.214q.116.461.21.931.096.471.116.857h.079q.037-.386.125-.81.086-.422.223-.963l1.347-5.233h3.042l-3.522 11.486c-.412 1.32-.926 2.271-1.551 2.849q-.934.865-2.418.865a6 6 0 0 1-.712-.037 4 4 0 0 1-.616-.116v-2.482q.367.117.867.116.673 0 1.01-.404.339-.404.645-1.425l.116-.405L50.88 10.71zm16.172-.195q1.445-.001 2.273.973.83.97.829 2.876v6.928h-2.926v-6.062q-.001-1.078-.242-1.634-.24-.557-.913-.559-.868 0-1.184.778-.316.781-.317 2.551v4.926h-2.926V10.714h2.273l.345 1.345h.154q.829-1.539 2.637-1.54m7.893 5.484q.001 1.519.355 2.309.355.789 1.165.787c.54 0 .904-.263 1.136-.787q.346-.79.345-2.328 0-1.538-.345-2.3-.346-.76-1.155-.759-1.502 0-1.501 3.078m5.968-.019q0 1.52-.47 2.77-.471 1.251-1.454 1.992-.985.74-2.562.74-1.464 0-2.446-.73t-1.491-1.983q-.51-1.25-.509-2.789 0-1.615.49-2.848c.326-.822.826-1.462 1.491-1.924q1.002-.692 2.521-.693 1.983 0 3.206 1.424 1.222 1.425 1.221 4.041m9.4 1.252q0 1.233-.53 2.193a3.74 3.74 0 0 1-1.542 1.509q-1.011.548-2.418.549a8.4 8.4 0 0 1-1.83-.191 7 7 0 0 1-1.673-.615v-2.984a8.5 8.5 0 0 0 1.76.788q.915.287 1.687.288.77 0 1.127-.354.356-.358.355-.913 0-.403-.173-.703t-.606-.615-1.221-.759a11 11 0 0 1-1.454-.982 3.7 3.7 0 0 1-1.01-1.261q-.368-.74-.368-1.876-.018-1.827 1.127-2.887 1.145-1.057 3.168-1.057.943.001 1.84.251a9 9 0 0 1 1.742.694l-.867 2.56q-1.52-.83-2.674-.829-.674.001-.993.317a1.07 1.07 0 0 0-.317.797q0 .444.183.74.182.298.634.615.452.32 1.28.76 1.348.73 2.06 1.634.712.905.713 2.328m.634-6.519h3.08l1.388 5.214q.116.461.21.931.095.471.116.857h.079q.037-.386.125-.81.086-.422.223-.963l1.347-5.233h3.042l-3.522 11.486q-.617 1.981-1.551 2.849-.934.865-2.418.865-.384 0-.713-.037a4 4 0 0 1-.615-.116v-2.482q.368.117.867.116.673 0 1.01-.404.34-.404.644-1.425l.116-.405-3.428-10.447zm17.154 7.406c0 1.093-.323 1.924-.973 2.501q-.974.866-2.819.866-.886 0-1.636-.135a6.2 6.2 0 0 1-1.463-.46v-2.655q.654.367 1.435.615a4.9 4.9 0 0 0 1.472.25q1.099 0 1.099-.787a.84.84 0 0 0-.116-.433q-.118-.201-.499-.442-.385-.239-1.174-.605-1.116-.537-1.677-1.309-.56-.768-.559-1.942 0-1.462.964-2.261t2.656-.8q.848 0 1.617.222a8.2 8.2 0 0 1 1.56.643l-.788 2.156a7 7 0 0 0-1.146-.54 3.4 3.4 0 0 0-1.145-.213q-.886.001-.886.633 0 .231.116.405.118.174.49.395.376.221 1.108.606 1.079.56 1.724 1.29.644.73.644 2"/></g><defs><clipPath id="a"><path fill="#fff" d="M.07 0h108v32H.07z"/></clipPath></defs></svg>