<svg width="464" height="298" xmlns="http://www.w3.org/2000/svg" xmlns:xlink="http://www.w3.org/1999/xlink" xml:space="preserve" overflow="hidden"><g transform="translate(-88 -110)"><g><g><g><g><path d="M123.063 96.9911C142.592 96.9911 151.99 104.922 153.953 123.4L137.754 123.281C136.485 114.676 132.362 111.108 123.281 111.108 115.132 111.108 110.652 114.438 110.652 120.069 110.652 125.7 115.37 127.425 129.606 130.756 149.71 135.454 159.464 140.51 159.464 156.471 159.464 172.431 148.659 180.817 127.782 180.817 104.129 180.817 93.7991 171.975 91.6181 151.316L107.816 151.316C109.303 161.883 114.815 166.701 127.345 166.701 137.913 166.701 143.306 162.795 143.306 156.371 143.306 149.948 137.913 148.223 124.134 144.892 103.574 139.955 94.3939 134.78 94.3939 120.208 94.3939 105.635 105.536 97.0109 123.103 97.0109Z" fill="#FFFFFF" fill-rule="nonzero" fill-opacity="1" transform="matrix(1.00524 0 0 1 -0.399532 111.297)"/><path d="M161.962 121.675 178.617 121.675 190.552 177.368 192.971 177.368 204.907 121.675 221.561 121.675 207.9 182.642C205.382 194.24 198.483 201.933 186.309 202.964L163.112 204.926 163.112 188.272 186.765 188.847C189.977 188.966 190.215 188.847 190.909 185.754L192.634 179.093 174.731 179.093 161.982 121.675Z" fill="#FFFFFF" fill-rule="nonzero" fill-opacity="1" transform="matrix(1.00524 0 0 1 -0.399532 111.297)"/><path d="M227.271 179.093 227.271 121.675 243.925 121.675 242.775 134.661 245.075 134.542C247.038 125.244 253.224 119.97 264.247 119.97 279.415 119.97 285.6 128.119 285.6 143.504L285.6 179.093 267.796 179.093 270.096 146.379C270.552 139.142 266.646 135.474 258.042 135.474 247.93 135.474 243.925 140.748 243.925 150.166L243.925 179.093 227.271 179.093Z" fill="#FFFFFF" fill-rule="nonzero" fill-opacity="1" transform="matrix(1.00524 0 0 1 -0.399532 111.297)"/><path d="M324.777 119.95C344.069 119.95 356.123 131.668 356.123 150.384 356.123 169.1 344.069 180.817 324.777 180.817 305.486 180.817 293.432 169.1 293.432 150.384 293.432 131.668 305.486 119.95 324.777 119.95ZM324.777 167.038C334.77 167.038 339.826 161.07 339.826 150.384 339.826 139.697 334.77 133.73 324.777 133.73 314.785 133.73 309.61 139.697 309.61 150.384 309.61 161.07 314.785 167.038 324.777 167.038Z" fill="#FFFFFF" fill-rule="nonzero" fill-opacity="1" transform="matrix(1.00524 0 0 1 -0.399532 111.297)"/><path d="M393.08 96.9911C412.609 96.9911 422.007 104.922 423.969 123.4L407.771 123.281C406.502 114.676 402.378 111.108 393.298 111.108 385.149 111.108 380.668 114.438 380.668 120.069 380.668 125.7 385.367 127.425 399.622 130.756 419.707 135.454 429.481 140.51 429.481 156.471 429.481 172.431 418.696 180.817 397.798 180.817 374.145 180.817 363.816 171.975 361.635 151.316L377.833 151.316C379.32 161.883 384.832 166.701 397.362 166.701 407.93 166.701 413.323 162.795 413.323 156.371 413.323 149.948 407.93 148.223 394.15 144.892 373.59 139.955 364.411 134.78 364.411 120.208 364.411 105.635 375.553 97.0109 393.119 97.0109Z" fill="#FFFFFF" fill-rule="nonzero" fill-opacity="1" transform="matrix(1.00524 0 0 1 -0.399532 111.297)"/><path d="M431.959 121.675 448.614 121.675 460.549 177.368 462.968 177.368 474.904 121.675 491.558 121.675 477.897 182.642C475.379 194.24 468.48 201.933 456.306 202.964L433.109 204.926 433.109 188.272 456.762 188.847C459.974 188.966 460.212 188.847 460.906 185.754L462.631 179.093 444.728 179.093 431.979 121.675Z" fill="#FFFFFF" fill-rule="nonzero" fill-opacity="1" transform="matrix(1.00524 0 0 1 -0.399532 111.297)"/><path d="M493.759 159.92 509.6 159.92C510.413 165.095 513.387 167.851 521.773 167.851 527.86 167.851 530.378 165.551 530.378 161.645 530.378 157.283 526.591 156.471 514.993 154.528 503.969 152.565 495.246 149.234 495.246 137.655 495.246 126.077 503.751 119.851 517.749 119.851 533.709 119.851 541.64 126.275 542.67 140.054L526.948 140.054C526.135 135.454 524.311 132.699 518.224 132.699 513.05 132.699 510.988 135.217 510.988 138.21 510.988 142.116 514.537 143.028 524.529 144.634 536.128 146.577 546.239 149.809 546.239 162.319 546.239 174.037 538.666 180.817 521.892 180.817 505.119 180.817 494.909 173.125 493.759 159.92Z" fill="#FFFFFF" fill-rule="nonzero" fill-opacity="1" transform="matrix(1.00524 0 0 1 -0.399532 111.297)"/></g></g></g></g></g></svg>