<?xml version="1.0" encoding="UTF-8"?>
<svg id="Ebene_1" xmlns="http://www.w3.org/2000/svg" version="1.1" viewBox="0 0 484.14 222.78">
  <!-- Generator: Adobe Illustrator 29.0.0, SVG Export Plug-In . SVG Version: 2.1.0 Build 186)  -->
  <defs>
    <style>
      .st0 {
        fill: #fff;
      }
    </style>
  </defs>
  <g>
    <g id="_x3C_Radiale_Wiederholung_x3E_">
      <path class="st0" d="M96.81,162.3c-4.8-.61-9.16-2.67-12.56-5.98-3.31-3.23-7.25-9.21-7.16-19.33l8.9.08c-.05,5.53,1.5,9.98,4.47,12.88,2.54,2.47,6.07,3.77,9.93,3.63,3.5-.12,6.74-1.6,9.13-4.16,2.39-2.56,3.64-5.9,3.52-9.39-.17-4.82-2.85-9.09-7.01-11.16-4.43-2.2-8.95-.71-12.94.6-.72.24-1.41.46-2.04.65-7.71,2.29-15.4,1.6-21.09-1.88-6.57-4.03-10.41-11.67-9.56-19.03.79-6.84,5.44-13,11.85-15.68l3.44,8.2c-3.44,1.44-6.03,4.86-6.45,8.5-.46,3.98,1.7,8.17,5.37,10.42,3.54,2.17,8.61,2.51,13.91.94.55-.16,1.15-.36,1.78-.57,4.77-1.57,11.99-3.94,19.68-.12,7.09,3.52,11.66,10.73,11.94,18.82.2,5.87-1.89,11.47-5.9,15.77-4.01,4.3-9.45,6.78-15.33,6.98-1.32.05-2.62-.01-3.89-.17Z"/>
    </g>
    <g id="_x3C_Radiale_Wiederholung_x3E_1" data-name="_x3C_Radiale_Wiederholung_x3E_">
      <path class="st0" d="M96.36,104.75c-2.63-.33-5.23-1.15-7.67-2.45-5.19-2.76-8.99-7.38-10.71-13-1.72-5.62-1.14-11.57,1.62-16.76,2.97-5.57,7.78-9.54,13.55-11.16,4.46-1.25,11.6-1.67,20.32,3.47l-4.52,7.67c-4.76-2.81-9.39-3.69-13.39-2.57-3.41.96-6.29,3.37-8.11,6.78-1.64,3.09-1.99,6.64-.97,9.98,1.02,3.35,3.29,6.1,6.38,7.74,4.26,2.27,9.3,2.08,13.17-.49,4.12-2.73,5.09-7.4,5.95-11.51.15-.75.3-1.45.46-2.09,1.88-7.83,6.32-14.14,12.18-17.32,6.77-3.67,15.31-3.17,21.25,1.24,5.53,4.11,8.53,11.21,7.66,18.1l-8.83-1.12c.47-3.7-1.19-7.65-4.14-9.84-3.21-2.39-7.92-2.62-11.7-.56-3.65,1.98-6.48,6.2-7.77,11.58-.14.56-.26,1.18-.4,1.83-1.03,4.92-2.58,12.35-9.74,17.11-4.34,2.88-9.52,4.02-14.6,3.38Z"/>
    </g>
    <g id="_x3C_Radiale_Wiederholung_x3E_2" data-name="_x3C_Radiale_Wiederholung_x3E_">
      <path class="st0" d="M131.8,162.23c-3.38-.42-6.65-1.7-9.41-3.78l5.37-7.09c2.97,2.25,7.23,2.78,10.59,1.31,3.67-1.6,6.21-5.56,6.32-9.87.1-4.15-2.15-8.71-6.17-12.5-.42-.4-.89-.81-1.39-1.26-3.75-3.34-9.43-8.39-9.98-16.97-.51-7.9,3.43-15.47,10.28-19.77,4.98-3.12,10.88-4.12,16.61-2.81,5.73,1.31,10.6,4.78,13.73,9.75,3.36,5.35,4.4,11.5,2.93,17.31-1.13,4.49-4.33,10.89-13.13,15.89l-4.4-7.74c4.81-2.73,7.88-6.3,8.9-10.33.87-3.44.21-7.14-1.84-10.41-1.86-2.97-4.76-5.03-8.18-5.81-3.41-.78-6.93-.19-9.89,1.67-4.08,2.56-6.43,7.03-6.13,11.66.32,4.93,3.88,8.1,7.02,10.89.57.51,1.1.98,1.58,1.44,5.85,5.52,9.12,12.52,8.96,19.19-.19,7.7-4.87,14.86-11.66,17.81-3.17,1.38-6.69,1.83-10.1,1.41Z"/>
    </g>
  </g>
  <g>
    <path class="st0" d="M210.05,84.31c9.85,0,14.59,4,15.58,13.32l-8.17-.06c-.64-4.34-2.72-6.14-7.3-6.14-4.11,0-6.37,1.68-6.37,4.52s2.38,3.71,9.56,5.39c10.14,2.37,15.06,4.92,15.06,12.97s-5.45,12.28-15.98,12.28c-11.93,0-17.14-4.46-18.24-14.88h8.17c.75,5.33,3.53,7.76,9.85,7.76,5.33,0,8.05-1.97,8.05-5.21s-2.72-4.11-9.67-5.79c-10.37-2.49-15-5.1-15-12.45s5.62-11.7,14.48-11.7Z"/>
    <path class="st0" d="M229.67,96.76h8.4l6.02,28.09h1.22l6.02-28.09h8.4l-6.89,30.75c-1.27,5.85-4.75,9.73-10.89,10.25l-11.7.99v-8.4l11.93.29c1.62.06,1.74,0,2.09-1.56l.87-3.36h-9.03l-6.43-28.96Z"/>
    <path class="st0" d="M262.61,125.72v-28.96h8.4l-.58,6.55,1.16-.06c.99-4.69,4.11-7.35,9.67-7.35,7.65,0,10.77,4.11,10.77,11.87v17.95h-8.98l1.16-16.5c.23-3.65-1.74-5.5-6.08-5.5-5.1,0-7.12,2.66-7.12,7.41v14.59h-8.4Z"/>
    <path class="st0" d="M311.79,95.89c9.73,0,15.81,5.91,15.81,15.35s-6.08,15.35-15.81,15.35-15.81-5.91-15.81-15.35,6.08-15.35,15.81-15.35ZM311.79,119.64c5.04,0,7.59-3.01,7.59-8.4s-2.55-8.4-7.59-8.4-7.65,3.01-7.65,8.4,2.61,8.4,7.65,8.4Z"/>
    <path class="st0" d="M346.24,84.31c9.85,0,14.59,4,15.58,13.32l-8.17-.06c-.64-4.34-2.72-6.14-7.3-6.14-4.11,0-6.37,1.68-6.37,4.52s2.37,3.71,9.56,5.39c10.13,2.37,15.06,4.92,15.06,12.97s-5.44,12.28-15.98,12.28c-11.93,0-17.14-4.46-18.24-14.88h8.17c.75,5.33,3.53,7.76,9.85,7.76,5.33,0,8.05-1.97,8.05-5.21s-2.72-4.11-9.67-5.79c-10.37-2.49-15-5.1-15-12.45s5.62-11.7,14.48-11.7Z"/>
    <path class="st0" d="M365.85,96.76h8.4l6.02,28.09h1.22l6.02-28.09h8.4l-6.89,30.75c-1.27,5.85-4.75,9.73-10.89,10.25l-11.7.99v-8.4l11.93.29c1.62.06,1.74,0,2.09-1.56l.87-3.36h-9.03l-6.43-28.96Z"/>
    <path class="st0" d="M397.02,116.05h7.99c.41,2.61,1.91,4,6.14,4,3.07,0,4.34-1.16,4.34-3.13,0-2.2-1.91-2.61-7.76-3.59-5.56-.99-9.96-2.67-9.96-8.51s4.29-8.98,11.35-8.98c8.05,0,12.05,3.24,12.57,10.19h-7.93c-.41-2.32-1.33-3.71-4.4-3.71-2.61,0-3.65,1.27-3.65,2.78,0,1.97,1.79,2.43,6.83,3.24,5.85.98,10.95,2.61,10.95,8.92,0,5.91-3.82,9.33-12.28,9.33s-13.61-3.88-14.19-10.54Z"/>
  </g>
</svg>