<svg xmlns="http://www.w3.org/2000/svg" data-name="Ebene 1" viewBox="0 0 128 128"><path d="M13.27 93.67c2.23-.47 2.38.98 3.83 2.05 4.31 3.2 9.15 3.53 13.7.58.82-.53 2.63-2.56 3.32-2.69 1.92-.37 5.67 2.74 6.99 4.14-3.81 4.63-8.13 12.79-4.12 18.41.36.5 3.08 2.83 2.85 3.16-3.14 1.62-7.08 2.12-10.59 2.3-6.05.31-13.99.37-19.62-1.87-3.13-1.25-9.56-5.16-9.63-8.9-.06-3.18 3.5-9.01 5.61-11.39 1.29-1.47 5.87-5.41 7.66-5.78Z"/><path d="M23.02 65.11c6.86-.74 13.37 4.84 13.53 11.79.2 8.77-9.32 22.64-18.49 13.86-7.98-7.64-8.4-24.2 4.96-25.65m63.91 32.22c1.95-.92 5.18-4.54 7.44-3.57.45.19 1.32 1.43 1.87 1.84 3.98 2.98 8.99 3.74 13.4 1.1 1.94-1.16 2.95-3.7 5.36-2.96 5.13 1.57 13.09 11.74 13 17.16-.06 3.82-6.55 7.68-9.79 8.93-5.62 2.18-13.94 2.13-19.97 1.78-1.25-.07-10.15-1.25-10.16-2.43 7.99-5.6 4-15.39-1.14-21.44v-.41Z"/><path d="M102.62 65.12c6.87-.59 13.05 4.85 13.24 11.77.22 7.66-7.85 21.25-16.72 15.25-9.82-6.65-10.81-25.79 3.47-27.01Zm-54.91-8.09c3.39-1.56 6.54.7 9.88.85 8.41.37 11.67-8.47 5.87-14.15-1.82-1.78-5.61-2.54-6-5.15-.32-2.14.18-3.09-.91-5.38-1.73-3.61-4.94-4.58-8.5-5.65.25-5.16 1.41-10.11-2.31-14.43l.1-.38c3.58-2.81 8.45-5.5 13.03-6.16 1.76-.25 2.62.02 3.51 1.67 1.57 2.91-1.15 4.62-2.5 7.05-5.68 10.24.24 18.72 11.74 17.72 2.94-.26 7.12-2.52 9.26.48 1.62 2.27 1.32 5.29 1.84 7.87.68 3.33 2.57 6.09 5.02 8.36-8.34 13.09-27.72 17.23-40.03 7.29Z"/><path d="M90.08 45.6c-4.99-3.9-2.05-12.06-6.89-16.12-6-5.04-13.77 2.39-19.43-2.61-3.01-2.67-1.44-7.02.33-9.93.98-1.62 2.69-3.01 3.02-4.98s.07-4.03-.79-5.79C85.17 7.5 97.73 28.25 90.08 45.6m-29.31 1.82c1.22 1.32 1.79 3.03.68 4.61-2.04 2.89-6.44.5-9.04.17-2.83-.36-6 .16-8.28 1.93-10.46-9.77-10.91-27.16-1.72-37.95 1.71 1.88 1.68 4.59 1.57 6.99-.15 3.21-1.73 5.85 1.63 8.1 2.07 1.39 4.56.89 6.26 2.9 1.99 2.34.72 5.18 2.3 7.99s4.71 3.21 6.61 5.26Zm-7.7 46.25c2.26-.48 2.6 1.19 4.11 2.34 4.17 3.17 9.73 3.1 13.85-.12 2.47-1.93 1.93-3.4 5.68-1.37 4.76 2.58 10.95 10.07 11.63 15.54.54 4.42-7.09 8.87-10.7 10.13-7.25 2.53-23.5 2.17-30.41-1.39-3.07-1.58-8.07-5.13-7.46-8.99.79-5.04 8.22-15.07 13.31-16.15Z"/><path d="M62.82 65.11c6.34-.69 12.6 4.26 13.23 10.64.86 8.68-8.08 23.44-17.6 15.56-8.81-7.28-9.41-24.7 4.37-26.2"/></svg>