<svg xmlns="http://www.w3.org/2000/svg" data-name="Ebene 1" viewBox="0 0 128 128"><path d="m0 74.53.57-42.86c7.76-.33 15.87.44 23.58.01 10.63-.58 19.68-7.27 29.48-10.52 7.2-2.38 10.46 1.29 17.11 1.9 5.77.53 12.75-1.86 12.68 6.89-5.02-.88-10.19-.78-15.2.09-1.94.34-3.82 1.05-5.83 1.31-2.69.35-5.49.18-8.17.69-3.77.71-6.81 3.14-10.21 4.08-4.52 1.25-12.93.42-14.39 6.47-2.48 10.3 11.72 10.97 18.51 10.51 10.41-.7 15.55-4.65 25.55 1.31C82 59.37 91.86 65.85 99.74 71.49c1.93 1.38 7.37 5.48 8.49 7.23 2.38 3.74.15 9.33-4.38 9.81-5.04.54-12.16-4.4-16.41-7.02-2.8-1.73-8.47-4.98-10.69-7.02-1.3-1.19-2.32-4.97-2.74-5.26-.37-.26-1.5-.12-1.85.13-1 .72 1.81 5.99 2.68 6.76l18.45 12.12c2.51 2.72 2.11 7.51-1.32 9.27-3.81 1.95-5.94-.13-8.8-2.29-4.05-3.05-7.22-6.49-12.04-8.53-1.56-.66-4.84-2.35-4.81.5.06.22.21.36.38.5.59.52 4.97 1.87 6.42 2.72 1.67.97 8 5.86 9.03 7.26 2.36 3.19-.49 7.08-4.23 6.23-6.94-3.07-13.07-10.19-21.17-9.32l-.35.22c-.6 2.51 1.1 1.79 2.56 2.05 4.4.81 7.69 3.08 11.32 5.55-2.55 3.59-6.28 6.12-10.67 3.8C45.7 97 32.45 86.66 18.37 77.73c-1.81-1.15-4.65-3.2-6.8-3.2z"/><path d="M122.54 35.41 128 70.09c-3.68 6.19-11.56 8.19-18.01 5.16-12.13-7.21-23.63-16.26-35.73-23.42-11.57-6.85-20.04-.14-31.83-1.03-3.16-.24-10.51-1.61-10.73-5.58-.36-6.61 9.18-5.54 13.44-6.85 2.86-.88 5.72-3.06 8.8-3.77s6.63-.49 9.88-.98c4.25-.64 8.08-1.97 12.6-1.97 6.33 0 11.25 2.23 17.25 3.35 9.53 1.79 19.29 1.4 28.88.41Zm-66.83 70.84-.17.57c-2.97.77-11.46 2.31-10.61-2.93.11-.69 1.31-3.37 2.07-3.37l8.72 5.73ZM17 79.67c1.72 1.65 4.76 2.9 6.41 4.45.23.21.69.42.59.83-4.97 4.5-11.65.95-7-5.28m23 15.72c-4.6 3.93-11.71.74-8.85-5.72z"/></svg>