<svg xmlns="http://www.w3.org/2000/svg" data-name="Ebene 1" viewBox="0 0 128 128"><path d="M76.92 14.08c7.16 1.7 13.62 5.28 19.46 9.65 3.59-2.26 6.39-5.53 7.91-9.52 1.12-2.93 1.41-6.45 2.48-9.22.81-2.09 2.25-3.09 4.52-2.93 3.48.24 11.39 8.01 13.21 11.06 5.44 9.13-4.97 8.47-10.66 10.65-3.99 1.52-7.26 4.32-9.52 7.91 4.38 5.85 7.94 12.33 9.67 19.49-2.97 1.5-6.11 3.21-9.56 3.18-1.71-.01-4.48-1.44-5.7.27-1.04 1.46-.4 3.32 1.27 3.85 3.35 1.05 8.65.37 11.9-.95 3.06-1.24 8.73-5.88 11.63-5.46 1.15.17 2.7 1.48 3.16 2.55 1.7 3.94 1.48 12.14.63 16.33-2.12 10.4-10.12 1.76-15.42-.4-3.15-1.28-8.65-2.09-11.85-.9-2.56.95-2.13 4.27.17 4.6 1.14.17 2.81-.47 3.95-.49.64 0 2.36.21 3.04.33 2.44.43 4.6 1.69 6.76 2.82-1.7 7.16-5.28 13.62-9.65 19.46 2.52 4.06 6.07 6.72 10.59 8.26 4.18 1.42 11.89 1.19 11.04 7.18-.44 3.1-8.22 11.01-11.01 12.67-8.79 5.24-8.37-3.93-10.29-9.59-1.52-4.46-4.27-8.32-8.45-10.6-5.6 4.55-12.17 7.8-19.14 9.68-1.9-2.68-3.15-5.96-3.25-9.29-.06-1.82 1.3-6.37-2.41-5.8-2.75.42-2.39 5.92-2.18 8.05.62 6.13 4.66 9.16 6.47 14.08 1.42 3.85-1.39 5.65-4.73 6.28-3.81.73-9.18.99-12.98.29-11.71-2.17-2.67-10.04-.36-15.92 1.13-2.89 2-8.54.87-11.42-.8-2.03-3.89-1.73-4.37-.08s.22 4.9-.13 7c-.41 2.44-1.71 4.6-2.82 6.76-7.16-1.7-13.62-5.28-19.46-9.65-4.06 2.52-6.72 6.07-8.26 10.59-1.59 4.68-1.5 14.02-8.96 10.26-3.15-1.59-9.09-7.2-10.89-10.23-5.22-8.76 3.96-8.38 9.59-10.29 4.46-1.52 8.32-4.27 10.6-8.45-4.57-5.6-7.78-12.18-9.69-19.14 2.81-1.85 6.42-3.31 9.83-3.28 1.62.01 5.26 1.46 5.81-1.1.87-4.07-6.1-3.71-8.6-3.46-6.13.62-9.16 4.66-14.08 6.47C.92 77.9.3 69.6.09 65.59c-.24-4.57-.08-16.08 7.34-13.05 5.04 2.05 7.66 5.71 13.97 6.3 2.18.2 8.46.54 8.1-2.93-.32-3.07-3.91-1.63-5.6-1.62-3.48.02-6.89-1.35-9.79-3.15 1.7-7.16 5.28-13.62 9.65-19.46-2.52-4.06-6.07-6.72-10.59-8.26C8.99 22 1.27 22.23 2.13 16.24c.45-3.13 8.2-11 11.01-12.67 8.79-5.24 8.37 3.93 10.29 9.59 1.52 4.46 4.27 8.32 8.45 10.6a50.4 50.4 0 0 1 19.3-9.67c1.59 3.05 3.14 5.96 3.12 9.53 0 1.83-1.5 5.65 1.88 5.74 4.04.11 2.71-8.84 2.01-11.28-1.18-4.09-4.11-7.05-5.62-10.65C49.86.95 58.16.29 62.46.06S78.31-.06 75.6 7.21c-1.49 3.99-4.6 6.51-5.77 11.36-.56 2.32-2.02 10.61 1.99 10.27 3.31-.27 1.92-3.55 1.98-5.51.11-3.35 1.38-6.46 3.12-9.25M47.99 38.97c-6.61.7-10.57 7.66-8.26 13.81.72 1.91 3.25 5.92 5.62 3.81s-1.12-4.3-1.51-6.21c-1.63-7.9 10.51-9.12 10.67-1.32.05 2.54-2.75 4.27-1.83 6.16 1.4 2.88 3.96 1 5.13-1.01 4.16-7.19-1.75-16.09-9.82-15.24m45.15 12.72c0-5.55-4.5-10.05-10.05-10.05s-10.05 4.5-10.05 10.05 4.5 10.05 10.05 10.05 10.05-4.5 10.05-10.05M58.83 70.07c-3.28.51-6.68 3.86-7.55 7.01-2.42 8.82 6.77 16.1 14.77 11.63 1.65-.92 3.11-2.2 1.96-4.26-1.52-2.71-4.65.96-6.96.96-7.18 0-7.12-11.26.28-10.85 2.68.15 3.82 2.59 5.43 2.6 2.15.02 2.99-2.16 1.86-3.88-1.82-2.79-6.7-3.69-9.78-3.21Z"/><circle cx="83.06" cy="51.74" r="5.36"/></svg>