<svg xmlns="http://www.w3.org/2000/svg" data-name="Ebene 1" viewBox="0 0 128 128"><path d="M48.54 23.14c4.49-2.69 9.43-2.93 14.28-.99 4.71 1.88 7.8 6.49 12.22 8.93l19.06.05 1.17-.55 6.29-7.43c-2.28-4.57.99-9.79 6.2-9.07 6.71.93 6.16 10.87.29 11.85-1.45.24-2.45-.32-3.78-.07l-6.3 7.43c-1.05.94-2.13 1.46-3.56 1.59-6.82.61-14.51-.49-21.42 0-1.99.17-2.22 3.33-.3 3.69 1.69.32 8.47-.41 9.29.14 1.2 2.21 2.51 10.48 5.28 11.01 1.33.25 7.15.13 8.16-.68l6.12-7.31c-1.38-2.98-.86-6.42 2.1-8.19 6.36-3.79 12.49 4.89 7.05 9.62-2.08 1.81-3.88 1.41-6.43 1.27l-6.14 7.3c-1.2 1.21-2.93 1.58-4.57 1.71-6.52.51-13.69-.42-20.28 0-2.67.62-2.57 3.81.26 3.99l17.96-.02 1.52 4.6h23.35c1.69-5.02 8.97-5.38 11.09-.49 2.73 6.29-5.34 11.63-10.05 6.33-.52-.59-.8-1.7-1.58-1.85H72.95c-2.56.32-1.49 3.72-.27 3.72h19.86l-1.43 4.86h4.14c2.48 0 7.08 7.31 9.01 9.01 2.25-.06 3.49-.54 5.57.7 4.31 2.55 3.71 9.04-1.02 10.72-5.38 1.92-9.85-3.72-7.28-8.71l-6.99-7.87-21.57-.11c-2.51.39-1.51 3.7-.59 3.7h16.57c.18 0 .4.42.41.68.07 1.02-.73 4.09-1.12 5.18-.69 1.93-1.87 3.72-3.15 5.28h10.14c2.3 0 7.11 7.41 9.01 9 1.76.08 2.71-.33 4.55.29 5.32 1.81 5.13 9.69-.15 11.26s-9.6-3.88-7.12-8.85l-6.29-7.43-1.17-.55-21.28.11c-1.87.78-2.08 3.13 0 3.73.56.16 1.59-.07 1.72.42-3.02 1.49-5.24 4.1-8.32 5.54-5.62 2.62-12.75 2.2-17.68-1.68V84.86c2.53.13 5.21 2.08 6.64 4.08 1 1.39 1.69 4.78 4 3.58 3.13-1.61-1.92-7.45-3.65-8.8-2.02-1.58-4.54-2.47-7.01-3.03V45.03c4.23-.89 7.86-3.65 10.25-7.23.75-1.12 2.44-3.55.56-4.45-2.62-1.26-3.38 1.98-4.8 3.64s-3.69 3.6-5.99 3.87V23.15Zm-4 17.72c-.67.66-4.46-2.11-5.11-2.74-1.68-1.62-3.15-5.92-5.74-4.82-2.85 1.21 2.14 6.84 3.42 7.99 2.09 1.89 4.68 3.2 7.45 3.73l-.03 35.82c-4.19.42-8.1 2.88-10.28 6.43-.9 1.47-2.03 3.23-1.07 4.94 3.18 1.88 3.75-2.69 5.68-4.62 1.34-1.35 3.74-2.63 5.68-2.74v20.14c-12.22 9.1-30.61-1.51-26.71-17 1.1-4.37 3.92-7.44 7.59-9.84 1.22-.8 3.89-1.31 3.29-3.31-1.13-3.76-7.4 1.24-8.89 2.57-.56.5-2.39 2.78-2.57 2.86-.45.22-.39-.2-.49-.36-1.21-2.02-1.14-5.83-4.53-3.73-1.04 2.92.99 5.66 2.83 7.71-1.84 4.79-2.28 9.78-.52 14.68C8.59 96.58 4.33 89.6 3.72 83.54c-.17-1.68.22-3.77-.1-5.33-.31-1.53-2.08-4.44-2.65-6.49C-1.1 64.2.06 56.77 5.12 50.73c.66-.79 3-2.69 3.27-3.3.46-1.03.47-3.51.81-4.91.68-2.8 2.26-5.69 4.2-7.8.59-.64 2.9-2.76 3.58-2.99.72-.24.24.29.22.5-.54 4.95-.21 8.77 2.44 13.12-1.43 1.58-4.13 8.11-.38 8.11 2.74 0 1.62-4.91 3.12-4.57.19.04 2.37 2.13 2.92 2.51 1.71 1.2 7.4 4.33 9.31 4 1.4-.24 1.82-2.46.92-3.38-.42-.43-3.79-1.34-4.77-1.8-7.95-3.7-12.95-13.88-8.06-21.89 4.4-7.21 14.86-9.89 21.83-4.74v17.29Z"/></svg>