<svg xmlns="http://www.w3.org/2000/svg" data-name="Ebene 1" viewBox="0 0 128 128"><path d="M64.29 13.59 76.18 2.8c4.93-3.74 9.87-3.49 15.12-.67 5.92 3.18 18.11 12.75 23.95 13.42.98.11 1.98 0 2.96.03l-2 28.53c-1.72-.18-3.32-.86-5.02-1.11-12.32-1.83-24.16 3.28-35.76 5.83-5.94 1.3-10.91-3.43-9.15-9.44 1.55-5.33 8.34-4.83 12.58-5.68 4.05-.81 13.77-4.54 14.7-8.98.61-2.91-.76-6.03-3.71-6.88-.88-.25-2.71-.19-3.02-.4-.26-.18-.29-.84-.55-1.16-.63-.76-2.63-2.71-3.57-2.71h-18.4ZM41.18 54.11v11.84c0 .08-.68.51-.8.91-.37 1.23-.03 2.44 1.16 3.01 14.71.49 29.53.1 44.28.2 1.59-.32 2.28-1.65 1.81-3.21-.12-.4-.8-.83-.8-.91V54.11h17.69l1.02 1.97 14.95 22.85H7.51l14.95-22.85 1.02-1.97h17.69Z"/><path d="M82.26 18.44v9.42C77.32 30.08 71.33 29 66.65 31.8c-8.54 5.11-6.34 19.16 3.33 21.6 4.36 1.1 8.07-.77 12.27-1.57v13.69H45.73l.29-47.08h36.23ZM5.8 83.49h116.41V128H5.8zm11.61 9.19c-1.21.38-1.84 1.41-1.91 2.65.43 6.75-.57 14.18-.01 20.84.12 1.41.47 2.5 1.99 2.86l92.04.13c1.39-.03 2.52-.56 2.86-1.99l.12-21.85c-.08-1.24-.7-2.27-1.91-2.65H17.41Z"/><path d="M20.35 97.47h87.3v16.83h-87.3z"/></svg>