<svg xmlns="http://www.w3.org/2000/svg" data-name="Ebene 1" viewBox="0 0 128 128"><path d="M49.79 31.44c.13.19 3.7.97 4.53 1.32.69.29 3.06 1.86 3.28 1.86 1.46 0 2.46-3.77 5.43-3.45 1.44.16 2.1 1.75 1.57 3.03-.48 1.17-3.46 3.23-3.45 3.98 0 .22 1.84 3.07 2.15 3.86s.87 3.84 1.02 3.97c.79.69 6.85-1.52 6.56 2.45-.27 3.66-5.75 1.45-6.56 2.16-.18.16-.91 3.62-1.31 4.54-.37.85-1.71 2.66-1.81 3.06-.07.29-.04.4.1.65.49.95 2.64 2.19 3.23 3.35 1.01 1.99-.83 3.79-2.88 3.16-.85-.26-3.27-3.71-3.92-3.54-.51.14-1.88 1.28-2.64 1.65-.63.3-1.58.67-2.26.88-.6.19-2.78.51-2.95.76-.88 1.25 1.43 6.77-2.54 6.6-3.46-.14-1.63-6.39-2.14-6.87-.06-.05-1.1.02-1.51-.06-1.5-.31-3.51-1.23-4.86-1.99-.33-.19-1.39-1.05-1.48-1.05-.83 0-3.63 5.44-6.15 3.26-3.13-2.69 3.02-5.3 2.84-6.53-.07-.46-1.72-2.69-2.1-3.62s-.75-2.11-.93-3.07c-.06-.33-.03-1.16-.07-1.21-.16-.19-4.02.11-4.93-.06-2.44-.46-2.45-3.98-.29-4.45.93-.2 5.05.14 5.22-.06.04-.05 0-.87.07-1.21.35-1.83 1.1-3.54 1.98-5.16.23-.43 1-1.26 1.06-1.53.15-.66-3.37-3.14-3.63-4-.62-2.04 1.49-3.74 3.37-2.8.67.34 3.21 3.52 3.57 3.53.1 0 1.29-.95 1.66-1.15.73-.4 1.72-.94 2.48-1.23.64-.24 3.46-.81 3.58-.98.85-1.22-1.33-6.63 2.55-6.61 3.57.02 1.46 5.53 2.17 6.56Zm2.62 10.53c0-1.45-1.18-2.63-2.63-2.63s-2.63 1.18-2.63 2.63 1.18 2.63 2.63 2.63 2.63-1.18 2.63-2.63m4.39 7.3c0-1.47-1.19-2.66-2.66-2.66s-2.66 1.19-2.66 2.66 1.19 2.66 2.66 2.66 2.66-1.19 2.66-2.66m33.21-2.98c.09.08 1.86.47 2.34.66.45.18 1.89 1.02 2.07 1.01.67-.04 2.4-3.62 4.72-1.52 2.44 2.2-1.34 4.24-1.38 4.87-.01.17.83 1.62 1.01 2.07.19.47.58 2.25.66 2.34.27.3 3.12-.62 4.1.89.5.78.56 1.57.12 2.37-.99 1.79-2.45.66-3.77 1.08-.72.23-1.39 3.63-2.11 4.39 1.79 1.26 3.4 4.49.52 5.44-1.92.63-3.41-2.19-4.02-2.05l-4.14 1.87c-.09 1.81.1 4.58-2.53 4.3s-1.5-2.86-1.91-4.1c-.18-.54-1.41-.64-1.96-.89-.45-.2-2.25-1.22-2.43-1.21-.66.04-2.71 3.89-4.86 1.38-1.54-1.8.09-3.34 1.46-4.58l-1.85-4.44c-1.81-.09-4.58.1-4.3-2.53s2.86-1.5 4.1-1.91c.54-.18.64-1.41.89-1.96.2-.45 1.22-2.25 1.21-2.43-.04-.65-3.02-1.9-1.86-4.21s3.9-.83 5.06.8l4.44-1.86c.65-1.07-.73-2.91 1.17-3.96.8-.44 1.59-.39 2.37.12 1.51.98.59 3.83.89 4.1Zm-.76 12.74c0-1.46-1.18-2.64-2.64-2.64s-2.64 1.18-2.64 2.64 1.18 2.64 2.64 2.64 2.64-1.18 2.64-2.64"/><path d="M127.37 98.24H86.14l-7.58-8.96c-1.26-1.01-2.42-1.76-4.1-1.89-6.99-.54-14.79.32-21.86.14-1.25.33-2.26 1.09-3.24 1.89l-7.44 8.82H.68c.28-1.05 1.21-2.21 1.88-3.12 3.91-5.32 8.64-10.06 12.62-15.34l.08-56.42c.56-4.01 3.47-6.94 7.52-7.31h83.05c3.82.3 6.67 3.21 6.98 7v56.49c3.83 5.39 8.6 10.11 12.55 15.41.73.99 1.73 2.08 2 3.28Zm-19.12-19.97v-55.5c0-.58-1.06-1.84-1.7-2.01h-84.2c-.88.08-2.55 1.82-2.55 2.58v54.93zm19.69 24.53c.13.13.03 3.05-.03 3.54-.35 3.01-3.06 5.5-6.1 5.6H5.96c-4.74-.59-6.44-4.76-5.85-9.14z"/><path d="M79.72 98.24H48.33c.1-.64.74-1.33 1.14-1.85.7-.9 3.33-4.18 4.19-4.37l20.93.07c.66.21 3.36 3.5 3.98 4.3.4.52 1.04 1.21 1.14 1.85Z"/></svg>