<svg xmlns="http://www.w3.org/2000/svg" data-name="Ebene 1" viewBox="0 0 128 128"><g data-name="g50oTg.tif"><path d="M127.91 32.43c.12 2.22.1 5 0 7.24-.98 20.78-11.04 46.47-27.74 59.49-9.1 7.09-24 13.2-33.06 2.65-2.15-2.51-2.12-3.05-.38-5.99 3.86 14.41 16.74 12.57 26.8 5.44 16.48-11.68 27.52-38.69 28.15-58.46.75-23.54-13.74-16.78-25.61-6.13S72.58 63.33 67.73 79.1l-2.51-9.85c3.52-9.77 9.44-18.71 16.01-26.7 9.9-12.04 44.67-46.51 46.69-10.11Z"/><path d="M117.34 30.52c3.89 4.23 1.65 19.4.51 24.91-3.08 14.88-11.32 32.63-23.28 42.37-17.55 14.28-30.37 4.76-25.26-16.76 3.61-15.21 18.67-35.37 30.77-45.11 3.62-2.91 13.04-10 17.26-5.41m-10.97 9.7c-10.06 1.53-26.18 25.07-29.66 34.24-7.12 18.76 2 28.58 16.99 12.74 9.23-9.75 18.16-30.97 16.99-44.43-.24-2.81-1.7-2.95-4.32-2.55m-34.14 48.1v4.12c0 6.34 6.14 9.3 11.68 7.68 15.67-4.57 28.01-33.91 28.79-48.84.05-.87.16-2.37-.26-3.13-1.33 13.73-7.29 29.37-16.61 39.68-4.5 4.98-15.42 13.92-21.35 6.35-1.37-1.75-1.72-3.77-2.25-5.86m-11.74-9.23c-4.41-13.2-12.25-25.21-21.6-35.44C22.14 25.33 1.1 14.62 7.37 52.44c2.98 17.96 14.09 42.13 30.72 51.15 9.88 5.36 20.1 4.24 23.14-7.78 1.68 2.91 1.82 3.34-.26 5.85-7.13 8.62-18.81 6.25-27.38 1.42C12.98 91.48.8 61.58.05 38.8c-1.76-53.55 47.51 1.7 57.39 19.01 1.14 1.99 5.23 9.58 5.31 11.43.1 2.28-2.62 7.1-2.27 9.85Z"/><path d="M13.74 28.99c7.25-.65 19.28 11.28 23.9 16.41 9.38 10.42 21.13 27.48 22.11 41.79 1.13 16.46-9.28 22.08-22.92 13.17C18.97 88.68 6.84 57.57 8.54 36.79c.25-3.1 1.49-7.46 5.2-7.79Zm5.23 11.23c-2.42.49-1.8 5.22-1.68 7.3.81 14.23 10.22 35.92 22.14 44.25 11.64 8.13 16.09.2 13.64-11.39-1.86-8.82-8.12-18.75-13.82-25.62-3.78-4.55-13.9-15.84-20.28-14.55Zm36.77 52.22c.16-1.27-.12-2.81 0-4.12-.53 2.09-.88 4.11-2.25 5.86-5.86 7.49-16.6-1.2-21.1-6.1-9.51-10.37-15.5-26.02-16.86-39.93-.58 2.51-.06 5.27.33 7.78 2.16 14.03 11.99 36.18 25.23 42.91 6.82 3.46 13.58 2.02 14.65-6.4m8.49-19.34c1.62 6.87 2.73 14.09.68 21.01-.11.37-.54 2.36-1.05 2.19-.4-.13-1.48-4.91-1.59-5.65-.69-4.92-.25-10.82 1.04-15.61.14-.51.3-2.12.92-1.95Z"/></g></svg>