<svg xmlns="http://www.w3.org/2000/svg" data-name="Ebene 1" viewBox="0 0 128 128"><path d="M78.53 99.89c.74 4.22.43 8.03-2.56 11.28-1.27 1.38-2.94 2.16-4.26 3.47 1.8 4.18 4.96 10.41-.98 12.99-2.83 1.23-8.21-.94-10.96-2.28-6.11-2.97-4.27-8.51-4.95-14.14 1.9-.67 3.9-.95 5.8-1.68 2.37-.91 4.62-2.5 7.18-3.09l2.01 3.97c3.59-1.76 5.82-5.93 4.16-9.84l-6.31 1.16c-4.51-4.08-8.31-9.6-9.84-15.55-.43-1.68-1.64-8.16-.71-9.28 6.41-3.91 11.69-9.55 15.28-16.13 1.65-3.03 2.2-6.83 6.18-7.8 9.52-2.33 18.67 13.93 21.57 21.14 2.71 6.74 8.41 23.65-.39 27.73-3.77 1.74-4.48.45-7.81-.4-4.38-1.12-8.89-1.69-13.42-1.57Zm1.64-42.77c-1.91.36-2.42 2.2-2.74 3.84-1.83 9.34 6.23 26.14 12.51 33.08s10.83 4.77 9.99-4.86c-.71-8.22-8.86-26.35-16.01-30.81-.99-.62-2.59-1.48-3.76-1.26Z"/><path d="M52.55 79.62c.04 8.94 4.22 17.68 10.56 23.84-7.92 5.2-18.84 3.87-22-5.98-2.88-9.01 3.14-15.65 11.43-17.86Zm54.32-12.48c.44-.43 4.56-2.12 5.2-2.1 1.95.07 2.8 2.58 1.29 3.87-.52.44-4.36 2.18-4.97 2.15-1.96-.12-2.92-2.55-1.52-3.92m-5.01-10.02c5.05-1.1 1.79 8.11-.9 7.94-1.03-.07-2.14-1.35-2.08-2.38.07-1.19 1.64-5.26 2.98-5.55Zm4.73 19.45c2.08-1.68 10.6 2.49 6.01 5.02-1.17.64-5.71-1.02-6.35-2.14-.49-.86-.45-2.25.33-2.88Zm-18.45 3.26c.71-.87.24-2.23-.61-2.79-1.09-.72-2.53.88-3.83-.73-1.46-1.82.12-3.58 2.09-3.82 7.92-.97 9.22 10.67 3.36 11.65-1.94.33-3.17-.93-2.58-2.88.23-.77 1.24-1.03 1.57-1.43m16.94-59.87c-2.36-12.93-21.05-12.92-23.41 0H71.39V8.4c0-3.63 4-7.74 7.64-8.06 9 .45 19.04-.85 27.91-.08 4.64.4 8.41 4.27 8.41 9v10.28l-.43.43h-9.85Zm-23.41 4.28c1.82 13.04 21.58 12.99 23.41 0h9.85l.43.43v10.56c0 4.37-3.85 8.35-8.13 8.72-9.06.78-19.3-.54-28.48-.08-3.54-.48-7.35-4.48-7.35-8.06V24.68l.43-.43h9.85Z"/><circle cx="93.36" cy="22.08" r="7.63"/><path d="M60.86 46.89C60.86 60.2 50.07 71 36.75 71S12.64 60.21 12.64 46.89s10.79-24.11 24.11-24.11 24.11 10.79 24.11 24.11M30.1 37.76c-.31.31-.94 1.21-1.11 1.61-1.06 2.5-1.14 12.95.09 15.34 1.43 2.77 4.91 3.81 7.76 2.79 1.45-.52 9.78-5.42 10.7-6.43 2.37-2.64 1.98-6.72-.72-8.95-1.27-1.05-9.41-5.74-10.81-6.04-2.1-.44-4.4.17-5.91 1.69Z"/><path d="M33.2 53c-.32-.31-.33-1.05-.36-1.49-.12-1.46-.17-9.51.22-10.36.44-.96 1.38-1.02 2.28-.71 1.1.37 7.04 3.88 8.17 4.69 1.2.86 1.76 2.12.47 3.23-.56.48-7.97 4.72-8.55 4.87-.62.17-1.75.25-2.22-.22Z"/></svg>