<svg xmlns="http://www.w3.org/2000/svg" data-name="Ebene 1" viewBox="0 0 128 128"><path d="M109.93 15.38c7.47-.37 18.24 2.56 18.07 11.77-.08 4.31-2.3 6.7-5.64 8.93-18.46 12.32-40.25 22-59.02 34.1-9.74 3.25-20.03 7.23-29.97 9.73-2.89.73-4.7 1.05-7.63.06-2.46-.83-21.99-15.14-24.26-17.44-1.7-1.71-2.1-4.12-.28-5.95.55-.54 7.67-4.31 8.42-4.44s1.78-.05 2.55-.01c7.63.32 15.87 2.78 23.58 2.71l63.68-36.57c3.27-1.56 6.86-2.73 10.52-2.91Zm-8.02 11.96c-3.26.7-.69 6.81 1.39 7.08 4.62.59 2.2-7.85-1.39-7.08m-9.14 5.14c-3.26.7-.69 6.81 1.39 7.08 4.71.6 2.1-7.83-1.39-7.08m-8.59 4.6c-4.07.21-1.3 7.66 1.55 7.22 3.87-.6.88-7.34-1.55-7.22m-9.39 5.39c-3.81.55-.78 6.78.79 7.09 5.07.99 2.43-7.55-.79-7.09m-8.89 4.9c-4.13.21-1.19 7.81 1.6 7.3 3.68-.67.97-7.43-1.6-7.3m-10.67 5.99c-1.41 1.42.48 6.01 1.83 6.42 6.05 1.84 1.91-10.18-1.83-6.42m43.9 1.63-23.3 47.11c-.99 1.34-11.96 7.53-13.84 8.15-3.99 1.33-6.77-1.4-6.27-5.42l4.43-28.42 5.29-2.14 33.69-19.29Z"/><path d="m78 25-.76.81-35.77 20.47-22.87-8.29c-2.93-1.17-3.46-5.14-1.4-7.39.92-1.01 11.04-7.69 12.13-7.86zM37.34 99.92c2.25-.08 3.55 2.96.78 4.45-2.94 1.59-19.5 7.62-22.66 8.19s-4.69-1.47-2.5-3.93zm9.73-14.58c3.36-.54 4.47 2.75 1.7 4.27l-23.39 8.34c-2.96.56-4-3.18-1.2-4.36l22.88-8.25Z"/></svg>