<svg xmlns="http://www.w3.org/2000/svg" data-name="Ebene 1" viewBox="0 0 128 128"><path d="M0 74.85C13.84 85.69 32.63 82.58 48.56 79c8.71-1.96 17.36-4.43 25.7-7.59l-1.56-4.26c-11.31 3.99-23.27 7.64-35.19 9.37C25.47 78.27 5.02 80.08.02 65.83l.1-27.84C1.4 35.34 2.99 36.73 5 36.86c2.29.14 4.46 0 6.62-.8 6.23-2.29 8.06-9.63 16.53-6.92 5.33 1.71 5.05 5.03 8.28 7.72 8.68 7.24 36.29 2.01 47.05-.07 9.72-10.81 28.47-24.2 40.49-8.63 9.61 12.45.33 29.34-9.56 38.42-1.98 1.82-9.49 7.73-11.78 8.21s-3.92-1.85-2.49-3.63c.6-.75 4.71-2.92 5.93-3.78 10.19-7.2 22.53-22.5 14.99-35.45-7.44-12.78-24.15-2.71-31.37 5.08-1.28 1.38-2.32 2.41-2.53 4.33-.53 4.92-1.18 15.58.18 20.03 2.7 8.89 10.57 7.71 7 19.42-9.92 32.56-61.88 50.76-84 20.15-.27-.37-1.95-2.75-1.76-2.95 2.06.91 4.34 1.69 6.56 2.15 11.48 2.39 23.34-.6 34.15-4.43 8.65-3.07 16.91-7.12 25.27-10.86l-2-3.87h-.86c-15.63 7.06-38.49 19-55.98 14.87C8.78 94.21 0 86.57 0 78.99z"/><path d="M33.07 11.52c10.18-1.15 15.48 5.02 18.43 13.98.54 1.64 1.9 6.29 1.87 7.8-.04 2.22-2.91 3.32-4.2 1.38-1.18-4.28-1.74-8.66-3.99-12.58-9.15-15.96-29.87 3.5-37.36 11.87-2.27 1.31-4.53-1.05-3.26-3.26.46-.81 3.17-3.45 4.01-4.27 5.74-5.61 16.4-14 24.5-14.91Z"/></svg>