<svg xmlns="http://www.w3.org/2000/svg" data-name="Ebene 1" viewBox="0 0 128 128"><path d="M68.29 105.16c-.46 1.91-.32 3.58.07 5.47.46 2.27 1.97 4.26 2.2 6.37 1.32 11.7-14.24 15.15-18.15 5-3.25-8.44 5.45-10.46 4.96-18.26-6.55-1.92-12.9-5.58-17.55-10.62-.8-.87-3.4-4.73-3.86-5.02-.56-.35-1.14.16-1.62.39-6.44 3.17-7.95 10.19-14.03 12.27-12.73 4.37-21.99-11.5-12.66-20.38 7.29-6.94 15.35.37 23.07-4.55l-1.05-7.17c.02-4.38.56-8.78 1.92-12.95.72-2.21 1.93-4.24 2.63-6.45-1.18-1-2.65-1.97-4.11-2.49-3.25-1.14-6.49-.4-9.45-2.56-9.53-6.99-.23-21.95 10.45-15.88 4.26 2.42 4.07 6.99 7.14 10.3 2.87 3.08 2.69 1.74 5.01-.13 6.35-5.14 13.94-8.23 22.17-8.71.74-.51.06-5.38-.15-6.46-1.09-5.72-4.88-8.37-2.81-15.08 4.16-13.46 25.34-9.7 23.81 5.51-.5 4.94-4.81 7.57-6.63 11.96-.41.98-1.92 5.09-1.1 5.77.34.28 3.36 1.14 4.2 1.52 3.91 1.76 7.26 4.21 10.54 6.93 1.06.1 3.08-2.3 3.68-3.19 2.17-3.2 2.07-6.79 5.8-9.07 9.19-5.62 19.13 5.61 12.54 13.97-4.1 5.19-10.93 2.22-14.98 7.06.69 2.21 1.92 4.19 2.67 6.38 2.81 8.31 2.7 16.73-.13 25.01-.31.91-1.79 3.7-1.73 4.27.12 1.15 4.43 2.94 5.58 3.31 4.43 1.41 8.37.35 12.42 3.3 11.38 8.31 1.57 26.53-11.98 21.13-7.03-2.81-6.12-8.69-10.06-13.67-1.08-1.37-2.42-2.51-3.81-3.55-7.01 6.16-15.59 9.9-25.01 10.24ZM55.06 46.32c-15.33 1.85-16.28 25.02-.58 27.87 2.55.46 11.53.27 9.64-4.21-.96-2.29-3.8-.46-5.43-.29-14.95 1.55-14.44-20.59-.03-18.84 1.7.21 4.16 2.03 5.16 1.97s2.22-1.39 2.16-2.41c-.21-3.64-8.22-4.41-10.92-4.09m40.7 17.65c0-5.84-4.74-10.58-10.58-10.58S74.6 58.13 74.6 63.97s4.74 10.58 10.58 10.58 10.58-4.74 10.58-10.58M76.04 85.56c0-4.32-3.5-7.82-7.82-7.82s-7.82 3.5-7.82 7.82 3.5 7.82 7.82 7.82 7.82-3.5 7.82-7.82"/><circle cx="85.17" cy="63.96" r="5.97"/><circle cx="68.24" cy="85.56" r="3.24"/></svg>