<svg xmlns="http://www.w3.org/2000/svg" width="100" height="32" fill="none" viewBox="0 0 100 32"><g fill="#fff" clip-path="url(#a)"><path d="m31.614 18.418-11.05 1.931v-9.841L9.514-.444h12.719l9.381 9.298zM-.416 12.44l11.05-1.932v9.841l11.051 10.953H8.965l-9.38-9.299zm38.348.173h6.912V31.3h4.419V12.613h6.907V8.851H37.932zM73.05 22.824q-.002 1.637-.497 2.78-.245.567-.62.985-.374.418-.882.695a4.3 4.3 0 0 1-1.188.42 7.6 7.6 0 0 1-1.536.142q-1.206-.001-2.094-.302a3.7 3.7 0 0 1-1.473-.89 3.3 3.3 0 0 1-.514-.675 4.6 4.6 0 0 1-.504-1.352 8.4 8.4 0 0 1-.17-1.772V8.851h-4.388v14.406q0 1.869.573 3.386a7.5 7.5 0 0 0 1.728 2.668c.77.77 1.721 1.345 2.843 1.727q1.682.572 3.874.57 1.545 0 2.83-.27a8.7 8.7 0 0 0 2.313-.819 7.8 7.8 0 0 0 1.787-1.292 6.9 6.9 0 0 0 1.271-1.693 8.3 8.3 0 0 0 .754-1.996q.251-1.056.25-2.22V8.851h-4.356zm27.029-6.332a10 10 0 0 0-1.013-2.705 8.9 8.9 0 0 0-1.65-2.128 9.2 9.2 0 0 0-2.237-1.551 11.4 11.4 0 0 0-2.763-.944q-1.5-.313-3.232-.313h-7.398V31.3h6.806q1.825 0 3.402-.32a12 12 0 0 0 2.903-.966q1.328-.646 2.352-1.618a9.3 9.3 0 0 0 1.74-2.264q.716-1.293 1.071-2.886.355-1.59.355-3.479 0-1.778-.336-3.274m-13.842-3.94h2.698q1.135 0 2.081.2t1.706.595q.758.395 1.33.992.574.598.967 1.405.392.807.591 1.843t.2 2.303q-.001 1.953-.463 3.396c-.307.962-.763 1.753-1.368 2.382s-1.366 1.102-2.293 1.42q-1.39.48-3.28.48h-2.17z"/></g><defs><clipPath id="a"><path fill="#fff" d="M0 0h100v32H0z"/></clipPath></defs></svg>