<svg xmlns="http://www.w3.org/2000/svg" id="Ebene_1" width="108" height="32" data-name="Ebene 1" viewBox="69.26 60.26 345.16 102.27"><defs><style>.cls-1{fill:#fff}</style></defs><path d="M229.6 115.38c0 2.62-.56 4.95-1.69 6.99-1.12 2.04-2.76 3.65-4.91 4.81s-4.71 1.75-7.7 1.75c-2.09 0-4.03-.21-5.83-.61-1.8-.41-3.58-1.06-5.33-1.96v-9.51c1.8 1.06 3.67 1.9 5.61 2.51s3.73.92 5.37.92 2.83-.38 3.59-1.13c.76-.76 1.13-1.73 1.13-2.91 0-.86-.18-1.6-.55-2.24-.37-.63-1.01-1.29-1.93-1.96s-2.22-1.48-3.89-2.42c-1.72-.98-3.26-2.02-4.63-3.13a11.8 11.8 0 0 1-3.22-4.02c-.78-1.57-1.17-3.57-1.17-5.98-.04-3.88 1.16-6.95 3.59-9.2s5.8-3.37 10.09-3.37c2 0 3.96.27 5.86.8s3.75 1.27 5.55 2.21l-2.76 8.16q-4.845-2.64-8.52-2.64c-1.43 0-2.48.34-3.16 1.01s-1.01 1.52-1.01 2.54c0 .94.19 1.73.58 2.36s1.06 1.29 2.02 1.96c.96.68 2.32 1.48 4.08 2.42 2.86 1.55 5.05 3.29 6.56 5.21s2.27 4.4 2.27 7.42m2.03-20.78h9.81l4.42 16.62c.25.98.47 1.97.67 2.97s.33 1.91.37 2.73h.25c.08-.82.21-1.68.4-2.58.18-.9.42-1.92.71-3.07l4.29-16.68h9.69l-11.22 36.61c-1.31 4.21-2.95 7.24-4.94 9.08-1.98 1.84-4.55 2.76-7.7 2.76-.82 0-1.57-.04-2.27-.12s-1.35-.2-1.96-.37v-7.91c.78.25 1.7.37 2.76.37 1.43 0 2.5-.43 3.22-1.29s1.4-2.37 2.05-4.54l.37-1.29-10.92-33.3Zm51.51-.62c3.07 0 5.48 1.03 7.24 3.1 1.76 2.06 2.64 5.12 2.64 9.17v22.08h-9.32V109c0-2.29-.26-4.03-.77-5.21s-1.48-1.78-2.91-1.78c-1.84 0-3.1.83-3.77 2.48-.67 1.66-1.01 4.37-1.01 8.13v15.7h-9.32V94.59h7.24l1.1 4.29h.49c1.76-3.27 4.56-4.91 8.4-4.91m25.14 17.48c0 3.23.38 5.68 1.13 7.36.76 1.68 1.99 2.51 3.71 2.51s2.88-.84 3.62-2.51c.74-1.68 1.1-4.15 1.1-7.42s-.37-5.71-1.1-7.33c-.74-1.62-1.96-2.42-3.68-2.42-3.19 0-4.78 3.27-4.78 9.81m19.01-.06c0 3.23-.5 6.17-1.5 8.83s-2.54 4.77-4.63 6.35c-2.09 1.57-4.81 2.36-8.16 2.36-3.11 0-5.7-.78-7.79-2.33s-3.67-3.66-4.75-6.32-1.62-5.62-1.62-8.89c0-3.43.52-6.46 1.56-9.08s2.63-4.66 4.75-6.13c2.13-1.47 4.8-2.21 8.03-2.21 4.21 0 7.61 1.51 10.21 4.54s3.89 7.32 3.89 12.88m29.94 3.99c0 2.62-.56 4.95-1.69 6.99-1.12 2.04-2.76 3.65-4.91 4.81s-4.71 1.75-7.7 1.75c-2.09 0-4.03-.21-5.83-.61-1.8-.41-3.58-1.06-5.33-1.96v-9.51c1.8 1.06 3.67 1.9 5.61 2.51s3.73.92 5.37.92 2.83-.38 3.59-1.13c.76-.76 1.13-1.73 1.13-2.91 0-.86-.18-1.6-.55-2.24-.37-.63-1.01-1.29-1.93-1.96s-2.22-1.48-3.89-2.42c-1.72-.98-3.26-2.02-4.63-3.13a11.8 11.8 0 0 1-3.22-4.02c-.78-1.57-1.17-3.57-1.17-5.98-.04-3.88 1.16-6.95 3.59-9.2s5.8-3.37 10.09-3.37c2 0 3.96.27 5.86.8s3.75 1.27 5.55 2.21l-2.76 8.16q-4.845-2.64-8.52-2.64c-1.43 0-2.48.34-3.16 1.01s-1.01 1.52-1.01 2.54c0 .94.19 1.73.58 2.36s1.06 1.29 2.02 1.96c.96.68 2.32 1.48 4.08 2.42 2.86 1.55 5.05 3.29 6.56 5.21s2.27 4.4 2.27 7.42m2.02-20.78h9.81l4.42 16.62c.25.98.47 1.97.67 2.97s.33 1.91.37 2.73h.25c.08-.82.21-1.68.4-2.58.18-.9.42-1.92.71-3.07l4.29-16.68h9.69l-11.22 36.61c-1.31 4.21-2.95 7.24-4.94 9.08-1.98 1.84-4.55 2.76-7.7 2.76-.82 0-1.57-.04-2.27-.12s-1.35-.2-1.96-.37v-7.91c.78.25 1.7.37 2.76.37 1.43 0 2.5-.43 3.22-1.29s1.4-2.37 2.05-4.54l.37-1.29-10.92-33.3Zm54.64 23.61c0 3.48-1.03 6.13-3.1 7.97s-5.06 2.76-8.98 2.76c-1.88 0-3.62-.14-5.21-.43a19.7 19.7 0 0 1-4.66-1.47v-8.46c1.39.78 2.91 1.43 4.57 1.96s3.22.8 4.69.8c2.33 0 3.5-.84 3.5-2.51 0-.49-.12-.95-.37-1.38q-.375-.645-1.59-1.41c-.82-.51-2.06-1.15-3.74-1.93q-3.555-1.71-5.34-4.17c-1.19-1.63-1.78-3.7-1.78-6.19 0-3.11 1.02-5.51 3.07-7.21 2.04-1.7 4.87-2.55 8.46-2.55 1.8 0 3.52.24 5.15.71s3.29 1.16 4.97 2.05l-2.51 6.87c-1.19-.69-2.4-1.27-3.65-1.72s-2.46-.68-3.65-.68c-1.88 0-2.82.68-2.82 2.02 0 .49.12.92.37 1.29q.375.555 1.56 1.26c.8.47 1.97 1.11 3.53 1.93q3.435 1.785 5.49 4.11c1.37 1.55 2.05 3.68 2.05 6.38" class="cls-1"/><path id="_Radiale_Wiederholung_" d="M106.32 162.16c-4.8-.61-9.16-2.67-12.56-5.98-3.31-3.23-7.25-9.21-7.16-19.33l8.9.08c-.05 5.53 1.5 9.98 4.47 12.88 2.54 2.47 6.07 3.77 9.93 3.63 3.5-.12 6.74-1.6 9.13-4.16s3.64-5.9 3.52-9.39c-.17-4.82-2.85-9.09-7.01-11.16-4.43-2.2-8.95-.71-12.94.6-.72.24-1.41.46-2.04.65-7.71 2.29-15.4 1.6-21.09-1.88-6.57-4.03-10.41-11.67-9.56-19.03.79-6.84 5.44-13 11.85-15.68l3.44 8.2c-3.44 1.44-6.03 4.86-6.45 8.5-.46 3.98 1.7 8.17 5.37 10.42 3.54 2.17 8.61 2.51 13.91.94.55-.16 1.15-.36 1.78-.57 4.77-1.57 11.99-3.94 19.68-.12 7.09 3.52 11.66 10.73 11.94 18.82.2 5.87-1.89 11.47-5.9 15.77s-9.45 6.78-15.33 6.98c-1.32.05-2.62-.01-3.89-.17Z" class="cls-1" data-name="&amp;lt;Radiale Wiederholung&amp;gt;" style="opacity:.4"/><path id="_Radiale_Wiederholung_-2" d="M105.87 104.61c-2.63-.33-5.23-1.15-7.67-2.45-5.19-2.76-8.99-7.38-10.71-13s-1.14-11.57 1.62-16.76c2.97-5.57 7.78-9.54 13.55-11.16 4.46-1.25 11.6-1.67 20.32 3.47l-4.52 7.67c-4.76-2.81-9.39-3.69-13.39-2.57-3.41.96-6.29 3.37-8.11 6.78a13.05 13.05 0 0 0-.97 9.98c1.02 3.35 3.29 6.1 6.38 7.74 4.26 2.27 9.3 2.08 13.17-.49 4.12-2.73 5.09-7.4 5.95-11.51.15-.75.3-1.45.46-2.09 1.88-7.83 6.32-14.14 12.18-17.32 6.77-3.67 15.31-3.17 21.25 1.24 5.53 4.11 8.53 11.21 7.66 18.1l-8.83-1.12c.47-3.7-1.19-7.65-4.14-9.84-3.21-2.39-7.92-2.62-11.7-.56-3.65 1.98-6.48 6.2-7.77 11.58-.14.56-.26 1.18-.4 1.83-1.03 4.92-2.58 12.35-9.74 17.11-4.34 2.88-9.52 4.02-14.6 3.38Z" class="cls-1" data-name="&amp;lt;Radiale Wiederholung&amp;gt;"/><path id="_Radiale_Wiederholung_-3" d="M141.31 162.09c-3.38-.42-6.65-1.7-9.41-3.78l5.37-7.09c2.97 2.25 7.23 2.78 10.59 1.31 3.67-1.6 6.21-5.56 6.32-9.87.1-4.15-2.15-8.71-6.17-12.5-.42-.4-.89-.81-1.39-1.26-3.75-3.34-9.43-8.39-9.98-16.97-.51-7.9 3.43-15.47 10.28-19.77a21.9 21.9 0 0 1 16.61-2.81c5.73 1.31 10.6 4.78 13.73 9.75 3.36 5.35 4.4 11.5 2.93 17.31-1.13 4.49-4.33 10.89-13.13 15.89l-4.4-7.74c4.81-2.73 7.88-6.3 8.9-10.33.87-3.44.21-7.14-1.84-10.41a12.98 12.98 0 0 0-8.18-5.81c-3.41-.78-6.93-.19-9.89 1.67-4.08 2.56-6.43 7.03-6.13 11.66.32 4.93 3.88 8.1 7.02 10.89.57.51 1.1.98 1.58 1.44 5.85 5.52 9.12 12.52 8.96 19.19-.19 7.7-4.87 14.86-11.66 17.81-3.17 1.38-6.69 1.83-10.1 1.41Z" class="cls-1" data-name="&amp;lt;Radiale Wiederholung&amp;gt;" style="opacity:.7"/></svg>