<svg xmlns="http://www.w3.org/2000/svg" data-name="Ebene 1" viewBox="0 0 128 128"><path d="m39.67 33.63 15.83 8.54c7.75-9.37 21.37-9.4 29.12-.03l7.29-3.64c-3.76-10.81 9.66-19.32 18.13-11.98s.96 22.54-10.83 19.11c-2.15-.62-3.45-1.8-5.15-3.12l-7.25 3.84c2.21 4.83 1.51 10.01-.34 14.82l12.21 6.99c2.47-2.09 4.09-4.02 7.24-5.24 14.45-5.61 27.32 9.65 19.93 23.07-8 14.53-31.55 7.66-29.93-9.94.08-.87.98-3.46.73-3.86l-13-7.01c-2.99 3.32-6.93 4.95-11.16 6.06l.02 19.51c11.4 1.85 13.9 17.53 3.85 23.15-14.25 7.96-26.55-12.87-12.98-21.55 1.49-.95 3.11-1.29 4.51-2.06l.05-19.07c-3.25-.82-6.35-1.76-9.01-3.89-.68-.54-2.83-3.14-3.38-3.09L21.97 83.65c2.89 10.03-7.39 18.98-16.68 13.33-6.57-4-7.15-13.65-1.03-18.34 4.98-3.82 11.01-2.78 15.49 1.22l33.58-19.84c-1.79-4.67-1.63-9.43.03-14.1l-15.99-8.45C25.99 50.84 4.91 39.62 10.4 22.5c2.45-7.64 10.49-11.44 18.14-9.88 9.58 1.95 14.18 12.05 11.14 20.98Z"/><circle cx="34.44" cy="56.44" r="7.96"/><circle cx="70.65" cy="21.48" r="7.95"/><circle cx="49.75" cy="84.73" r="7.95"/></svg>